<svg width="85" height="48" viewBox="0 0 85 48" fill="none" xmlns="http://www.w3.org/2000/svg">
<path d="M16.2217 14.6921L16.9685 17.5977L22.7796 16.104L22.0328 13.1985L16.2217 14.6921ZM11.3889 23.6863L10.4076 26.5213L10.4089 26.5217L11.3889 23.6863ZM19.1306 32.1713L22.1297 32.2439L22.1298 32.2423L19.1306 32.1713ZM6.5574 32.6771L5.81167 29.7712L0 31.2627L0.745733 34.1685L6.5574 32.6771ZM14.3911 3V0H8.39107V3H14.3911ZM8.39107 8.93703C8.39107 10.5939 9.73417 11.937 11.3911 11.937C13.048 11.937 14.3911 10.5939 14.3911 8.93703H8.39107ZM8.39107 44.3793V47.3793H14.3911V44.3793H8.39107ZM14.3911 38.4423C14.3911 36.7854 13.048 35.4423 11.3911 35.4423C9.73417 35.4423 8.39107 36.7854 8.39107 38.4423H14.3911ZM22.0328 13.1985C20.8684 8.66828 16.198 5.97526 11.4676 5.97526V11.9753C14.2934 11.9753 15.9265 13.5439 16.2217 14.6921L22.0328 13.1985ZM11.4676 5.97526C6.16703 5.97526 0.647073 9.50077 0.647073 15.2002H6.64707C6.64707 14.0202 8.13012 11.9753 11.4676 11.9753V5.97526ZM0.647073 15.2002C0.647073 17.9061 1.9652 20.3457 3.68921 22.2073C5.43668 24.0943 7.79953 25.6186 10.4076 26.5213L12.3701 20.8513C10.6378 20.2517 9.12976 19.2517 8.09144 18.1305C7.02966 16.984 6.64707 15.9316 6.64707 15.2002H0.647073ZM10.4089 26.5217C12.2133 27.1453 13.7369 28.0978 14.755 29.1598C15.7679 30.2164 16.1521 31.2279 16.1314 32.1003L22.1298 32.2423C22.198 29.3613 20.8815 26.8803 19.0863 25.0077C17.2964 23.1406 14.9047 21.7272 12.3688 20.8508L10.4089 26.5217ZM16.1315 32.0987C16.1002 33.3936 14.5714 35.3973 11.3113 35.3973V41.3973C16.6891 41.3973 21.9946 37.826 22.1297 32.2439L16.1315 32.0987ZM11.3113 35.3973C8.48774 35.3973 6.85231 33.8262 6.5574 32.6771L0.745733 34.1685C1.9081 38.6978 6.57852 41.3973 11.3113 41.3973V35.3973ZM8.39107 3V8.93703H14.3911V3H8.39107ZM14.3911 44.3793V38.4423H8.39107V44.3793H14.3911Z" fill="#D9BA99"/>
<path d="M47.0012 14.6921L47.748 17.5977L53.5591 16.104L52.8123 13.1985L47.0012 14.6921ZM42.1684 23.6863L41.1871 26.5213L41.1884 26.5217L42.1684 23.6863ZM49.9101 32.1713L52.9092 32.2439L52.9093 32.2423L49.9101 32.1713ZM37.3369 32.6771L36.5912 29.7712L30.7795 31.2627L31.5253 34.1685L37.3369 32.6771ZM45.1706 3V0H39.1706V3H45.1706ZM39.1706 8.93703C39.1706 10.5939 40.5137 11.937 42.1706 11.937C43.8275 11.937 45.1706 10.5939 45.1706 8.93703H39.1706ZM39.1706 44.3793V47.3793H45.1706V44.3793H39.1706ZM45.1706 38.4423C45.1706 36.7854 43.8275 35.4423 42.1706 35.4423C40.5137 35.4423 39.1706 36.7854 39.1706 38.4423H45.1706ZM52.8123 13.1985C51.6479 8.66828 46.9775 5.97526 42.2471 5.97526V11.9753C45.0729 11.9753 46.706 13.5439 47.0012 14.6921L52.8123 13.1985ZM42.2471 5.97526C36.9466 5.97526 31.4266 9.50077 31.4266 15.2002H37.4266C37.4266 14.0202 38.9097 11.9753 42.2471 11.9753V5.97526ZM31.4266 15.2002C31.4266 17.9061 32.7447 20.3457 34.4688 22.2073C36.2162 24.0943 38.5791 25.6186 41.1871 26.5213L43.1496 20.8513C41.4173 20.2517 39.9093 19.2517 38.871 18.1305C37.8092 16.984 37.4266 15.9316 37.4266 15.2002H31.4266ZM41.1884 26.5217C42.9928 27.1453 44.5164 28.0978 45.5345 29.1598C46.5474 30.2164 46.9316 31.2279 46.9109 32.1003L52.9093 32.2423C52.9775 29.3613 51.661 26.8803 49.8658 25.0077C48.0759 23.1406 45.6842 21.7272 43.1483 20.8508L41.1884 26.5217ZM46.911 32.0987C46.8797 33.3936 45.3509 35.3973 42.0908 35.3973V41.3973C47.4686 41.3973 52.7741 37.826 52.9092 32.2439L46.911 32.0987ZM42.0908 35.3973C39.2673 35.3973 37.6319 33.8262 37.3369 32.6771L31.5253 34.1685C32.6876 38.6978 37.3581 41.3973 42.0908 41.3973V35.3973ZM39.1706 3V8.93703H45.1706V3H39.1706ZM45.1706 44.3793V38.4423H39.1706V44.3793H45.1706Z" fill="#D9BA99"/>
<path d="M77.7809 14.6921L78.5277 17.5977L84.3388 16.104L83.592 13.1985L77.7809 14.6921ZM72.9481 23.6863L71.9668 26.5213L71.9681 26.5217L72.9481 23.6863ZM80.6898 32.1713L83.6889 32.2439L83.689 32.2423L80.6898 32.1713ZM68.1166 32.6771L67.3709 29.7712L61.5592 31.2627L62.3049 34.1685L68.1166 32.6771ZM75.9503 3V0H69.9503V3H75.9503ZM69.9503 8.93703C69.9503 10.5939 71.2934 11.937 72.9503 11.937C74.6072 11.937 75.9503 10.5939 75.9503 8.93703H69.9503ZM69.9503 44.3793V47.3793H75.9503V44.3793H69.9503ZM75.9503 38.4423C75.9503 36.7854 74.6072 35.4423 72.9503 35.4423C71.2934 35.4423 69.9503 36.7854 69.9503 38.4423H75.9503ZM83.592 13.1985C82.4276 8.66828 77.7572 5.97526 73.0268 5.97526V11.9753C75.8526 11.9753 77.4857 13.5439 77.7809 14.6921L83.592 13.1985ZM73.0268 5.97526C67.7262 5.97526 62.2063 9.50077 62.2063 15.2002H68.2063C68.2063 14.0202 69.6893 11.9753 73.0268 11.9753V5.97526ZM62.2063 15.2002C62.2063 17.9061 63.5244 20.3457 65.2484 22.2073C66.9959 24.0943 69.3587 25.6186 71.9668 26.5213L73.9293 20.8513C72.197 20.2517 70.689 19.2517 69.6506 18.1305C68.5889 16.984 68.2063 15.9316 68.2063 15.2002H62.2063ZM71.9681 26.5217C73.7725 27.1453 75.2961 28.0978 76.3142 29.1598C77.3271 30.2164 77.7113 31.2279 77.6906 32.1003L83.689 32.2423C83.7572 29.3613 82.4407 26.8803 80.6455 25.0077C78.8556 23.1406 76.4639 21.7272 73.928 20.8508L71.9681 26.5217ZM77.6907 32.0987C77.6594 33.3936 76.1306 35.3973 72.8705 35.3973V41.3973C78.2483 41.3973 83.5538 37.826 83.6889 32.2439L77.6907 32.0987ZM72.8705 35.3973C70.0469 35.3973 68.4115 33.8262 68.1166 32.6771L62.3049 34.1685C63.4673 38.6978 68.1377 41.3973 72.8705 41.3973V35.3973ZM69.9503 3V8.93703H75.9503V3H69.9503ZM75.9503 44.3793V38.4423H69.9503V44.3793H75.9503Z" fill="#D9BA99" fill-opacity="0.3"/>
</svg>
