<svg width="20" height="22" viewBox="0 0 20 22" fill="none" xmlns="http://www.w3.org/2000/svg">
<path d="M18.9994 15.4854V18.2005C19.0005 18.4525 18.9488 18.702 18.8479 18.933C18.7469 19.1639 18.5988 19.3712 18.413 19.5416C18.2273 19.712 18.008 19.8418 17.7693 19.9225C17.5305 20.0033 17.2775 20.0333 17.0265 20.0106C14.2415 19.708 11.5664 18.7563 9.21601 17.2321C7.02929 15.8426 5.17534 13.9886 3.7858 11.8019C2.25627 9.44084 1.30442 6.7527 1.00735 3.95524C0.98473 3.70497 1.01447 3.45273 1.09468 3.21458C1.17489 2.97644 1.30381 2.7576 1.47323 2.57201C1.64265 2.38641 1.84885 2.23813 2.07872 2.13659C2.30858 2.03506 2.55707 1.9825 2.80837 1.98227H5.52347C5.96269 1.97794 6.3885 2.13348 6.72152 2.41988C7.05455 2.70628 7.27207 3.10401 7.33354 3.53893C7.44814 4.40782 7.66067 5.26096 7.96707 6.08207C8.08883 6.40601 8.11519 6.75806 8.043 7.09651C7.97082 7.43496 7.80313 7.74563 7.5598 7.9917L6.41041 9.14109C7.69877 11.4069 9.57482 13.2829 11.8406 14.5713L12.99 13.4219C13.2361 13.1786 13.5467 13.0109 13.8852 12.9387C14.2236 12.8665 14.5757 12.8929 14.8996 13.0146C15.7207 13.321 16.5739 13.5336 17.4428 13.6482C17.8824 13.7102 18.2839 13.9316 18.5709 14.2704C18.858 14.6091 19.0105 15.0415 18.9994 15.4854Z" stroke="white" stroke-width="2" stroke-linecap="round" stroke-linejoin="round"/>
</svg>
