<svg width="45" height="45" viewBox="0 0 45 45" fill="none" xmlns="http://www.w3.org/2000/svg">
<path d="M22.3604 36.3825L11.8641 44.3966C11.344 44.8221 10.7766 45.0226 10.162 44.998C9.54735 44.9753 9.0036 44.7985 8.5308 44.4675C8.058 44.1365 7.692 43.6874 7.43293 43.12C7.17194 42.5526 7.15965 41.938 7.39605 41.276L11.4386 28.1557L1.155 20.8508C0.587632 20.4725 0.233027 19.9761 0.0911842 19.3615C-0.0506581 18.7468 -0.0270175 18.1794 0.162106 17.6594C0.351228 17.1392 0.682193 16.6778 1.155 16.2749C1.62781 15.8741 2.19518 15.6736 2.8571 15.6736H15.552L19.6654 2.05671C19.9018 1.39478 20.2687 0.886043 20.7661 0.53049C21.2616 0.176831 21.7931 0 22.3604 0C22.9277 0 23.4592 0.176831 23.9547 0.53049C24.4521 0.886043 24.819 1.39478 25.0554 2.05671L29.1689 15.6736H41.8637C42.5256 15.6736 43.093 15.8741 43.5658 16.2749C44.0386 16.6778 44.3696 17.1392 44.5587 17.6594C44.7478 18.1794 44.7715 18.7468 44.6296 19.3615C44.4878 19.9761 44.1332 20.4725 43.5658 20.8508L33.2822 28.1557L37.3247 41.276C37.5611 41.938 37.5498 42.5526 37.2907 43.12C37.0297 43.6874 36.6628 44.1365 36.19 44.4675C35.7172 44.7985 35.1734 44.9753 34.5588 44.998C33.9442 45.0226 33.3768 44.8221 32.8567 44.3966L22.3604 36.3825Z" fill="#D9BA99"/>
</svg>
