<svg width="47" height="46" viewBox="0 0 47 46" fill="none" xmlns="http://www.w3.org/2000/svg">
<path d="M46.6126 32.4728L10.5649 0.777972L0 12.7938L36.0476 44.4887L46.6126 32.4728ZM31.4794 35.1458L36.7618 29.1378L40.3666 32.3073L35.0841 38.3152L31.4794 35.1458ZM21.5039 21.0486L25.1087 24.2181C26.0647 25.0587 27.2599 25.5483 28.4312 25.5794C29.6026 25.6104 30.6542 25.1803 31.3547 24.3836L34.9595 27.5531L29.677 33.561L11.6531 17.7136L16.9356 11.7056L20.5404 14.8751C19.8399 15.6718 19.5479 16.7698 19.7286 17.9276C19.9093 19.0853 20.5479 20.208 21.5039 21.0486ZM6.24601 12.9593L11.5285 6.95143L15.1332 10.1209L9.85082 16.1288L6.24601 12.9593Z" fill="#D9BA99"/>
<path d="M11.0026 25.1284L14.8026 28.4719L7.65669 36.8127L7.8861 40.3831L11.4565 40.1537L18.6024 31.8129L22.4022 35.1539L14.328 44.5558L3.61435 45.2442L2.92611 34.5331L11.0028 25.131L11.0026 25.1284ZM24.209 10.1111L32.0723 0.860552C32.2917 0.610712 32.5582 0.406582 32.8566 0.259812C33.1549 0.113046 33.4793 0.0265295 33.8111 0.00520746C34.143 -0.0161145 34.4757 0.0281785 34.7904 0.135552C35.1051 0.242925 35.3956 0.411273 35.6452 0.630973L43.2448 7.31292C43.7486 7.75602 44.0558 8.38107 44.0988 9.05061C44.1418 9.72013 43.9171 10.3794 43.4742 10.8833L35.6112 20.1389L31.8086 16.7931L38.0041 9.44473L34.2016 6.10143L28.0113 13.4519L24.209 10.1111Z" fill="#D9BA99"/>
</svg>
